
<svg width="26px" height="26px" viewBox="0 0 26 26" version="1.1" xmlns="http://www.w3.org/2000/svg" xmlns:xlink="http://www.w3.org/1999/xlink">
    <g id="Page-1" stroke="none" stroke-width="1" fill="none" fill-rule="evenodd">
        <g id="icon-for-sutitle-reader-(light-mode)" transform="translate(-53.000000, -87.000000)">
            <g id="exchange-icon-copy" transform="translate(53.500000, 87.500000)">
                <rect id="Rectangle" x="0" y="0" width="25" height="25"></rect>
                <g id="icon" transform="translate(4.500000, 3.000000)" fill-rule="nonzero">
                    <path d="M2.92239859,5.98319306 C2.74481774,6.34007757 2.77068488,6.62551542 3,6.83950661 C3.22931512,7.0534978 3.53736921,7.0534978 3.92416226,6.83950661 L6.78835979,4.39117351 C7.07054674,4.14995843 7.07054674,3.77607505 6.78835979,3.53485997 L3.92416226,1.08652688 C3.48251736,0.949268832 3.17446327,0.975310662 3,1.16465237 C2.82553673,1.35399407 2.79966959,1.61339009 2.92239859,1.94284042 L4.58730159,3.36600941 L-1,3.36600941 L-1,4.57208483 L4.58730159,4.57208483 L2.92239859,5.99525382 L2.92239859,5.98319306 Z" id="Path" fill="#4927A4" transform="translate(3.000000, 4.000000) rotate(-90.000000) translate(-3.000000, -4.000000) "></path>
                    <path d="M12.9223986,16.4831931 C12.7448177,16.8400776 12.7706849,17.1255154 13,17.3395066 C13.2293151,17.5534978 13.5373692,17.5534978 13.9241623,17.3395066 L16.7883598,14.8911735 C17.0705467,14.6499584 17.0705467,14.2760751 16.7883598,14.03486 L13.9241623,11.5865269 C13.4825174,11.4492688 13.1744633,11.4753107 13,11.6646524 C12.8255367,11.8539941 12.7996696,12.1133901 12.9223986,12.4428404 L14.5873016,13.8660094 L9,13.8660094 L9,15.0720848 L14.5873016,15.0720848 L12.9223986,16.4952538 L12.9223986,16.4831931 Z" id="Path-Copy" fill="#4927A4" transform="translate(13.000000, 14.500000) scale(1, -1) rotate(-90.000000) translate(-13.000000, -14.500000) "></path>
                    <path d="M1.2819426,8.5 L4.7180574,8.5 C5.16381677,8.5 5.32545989,8.54641281 5.48842285,8.63356635 C5.65138581,8.7207199 5.7792801,8.84861419 5.86643365,9.01157715 C5.95358719,9.17454011 6,9.33618323 6,9.7819426 L6,16.2180574 C6,16.6638168 5.95358719,16.8254599 5.86643365,16.9884229 C5.7792801,17.1513858 5.65138581,17.2792801 5.48842285,17.3664336 C5.32545989,17.4535872 5.16381677,17.5 4.7180574,17.5 L1.2819426,17.5 C0.83618323,17.5 0.674540111,17.4535872 0.511577148,17.3664336 C0.348614185,17.2792801 0.220719898,17.1513858 0.133566352,16.9884229 C0.0464128056,16.8254599 2.00617683e-17,16.6638168 -3.45280103e-17,16.2180574 L3.45280103e-17,9.7819426 C-2.00617683e-17,9.33618323 0.0464128056,9.17454011 0.133566352,9.01157715 C0.220719898,8.84861419 0.348614185,8.7207199 0.511577148,8.63356635 C0.674540111,8.54641281 0.83618323,8.5 1.2819426,8.5 Z" id="Rectangle" stroke="#4927A4" stroke-width="1.5"></path>
                    <path d="M11.2819426,1 L14.7180574,1 C15.1638168,1 15.3254599,1.04641281 15.4884229,1.13356635 C15.6513858,1.2207199 15.7792801,1.34861419 15.8664336,1.51157715 C15.9535872,1.67454011 16,1.83618323 16,2.2819426 L16,8.7180574 C16,9.16381677 15.9535872,9.32545989 15.8664336,9.48842285 C15.7792801,9.65138581 15.6513858,9.7792801 15.4884229,9.86643365 C15.3254599,9.95358719 15.1638168,10 14.7180574,10 L11.2819426,10 C10.8361832,10 10.6745401,9.95358719 10.5115771,9.86643365 C10.3486142,9.7792801 10.2207199,9.65138581 10.1335664,9.48842285 C10.0464128,9.32545989 10,9.16381677 10,8.7180574 L10,2.2819426 C10,1.83618323 10.0464128,1.67454011 10.1335664,1.51157715 C10.2207199,1.34861419 10.3486142,1.2207199 10.5115771,1.13356635 C10.6745401,1.04641281 10.8361832,1 11.2819426,1 Z" id="Rectangle-Copy-3" stroke="#4927A4" stroke-width="1.5"></path>
                </g>
            </g>
        </g>
    </g>
</svg>