<svg width="25px" height="25px" viewBox="0 0 25 25" version="1.1" xmlns="http://www.w3.org/2000/svg" xmlns:xlink="http://www.w3.org/1999/xlink">
    <defs>
        <linearGradient x1="50%" y1="0%" x2="50%" y2="100%" id="linearGradient-ybr144cuqr-1">
            <stop stop-color="#CF867E" offset="0%"></stop>
            <stop stop-color="#70A8C3" offset="100%"></stop>
        </linearGradient>
    </defs>
    <g id="Page-1" stroke="none" stroke-width="1" fill="none" fill-rule="evenodd">
        <g id="icon-for-sutitle-reader-(dark-mode)" transform="translate(-85.000000, -161.000000)">
            <g id="movie-icon-transparent" transform="translate(85.000000, 161.000000)">
                <g id="movie-icon" transform="translate(2.000000, 2.000000)" fill="url(#linearGradient-ybr144cuqr-1)">
                    <path d="M20.5,0 C20.7761424,-5.07265313e-17 21,0.223857625 21,0.5 L21,20.5 C21,20.7761424 20.7761424,21 20.5,21 L0.5,21 C0.223857625,21 3.38176876e-17,20.7761424 0,20.5 L0,0.5 C-3.38176876e-17,0.223857625 0.223857625,5.07265313e-17 0.5,0 L20.5,0 Z M3.759,1.5 L1.5,1.5 L1.5,19.5 L19.5,19.5 L19.5,3.75 L17.2370625,6 L15.01575,6 L17.25,3.759 L15.041625,1.5 L11.91075,1.5 L14.154,3.741 L11.855625,6 L9.1989375,6 L11.482125,3.759 L9.225375,1.5 L6.043875,1.5 L8.284875,3.741 L5.9870625,6 L3.7325625,6 L6.0174375,3.759 L3.759,1.5 Z M17.25,15 L17.25,17.25 L3.75,17.25 L3.75,15 L17.25,15 Z M17.25,10.5 L17.25,12.75 L3.75,12.75 L3.75,10.5 L17.25,10.5 Z M19.5,1.5 L17.293875,1.5 L19.5,3.75 L19.5,1.5 Z" id="Combined-Shape"></path>
                </g>
                <rect id="Rectangle" x="0" y="0" width="25" height="25"></rect>
            </g>
        </g>
    </g>
</svg>