
<svg width="26px" height="25px" viewBox="0 0 26 25" version="1.1" xmlns="http://www.w3.org/2000/svg" xmlns:xlink="http://www.w3.org/1999/xlink">
    <g id="Page-1" stroke="none" stroke-width="1" fill="none" fill-rule="evenodd">
        <g id="icon-for-sutitle-reader-(dark-mode)" transform="translate(-163.000000, -88.000000)">
            <g id="reader-icon" transform="translate(163.500000, 88.000000)">
                <rect id="Rectangle" x="0" y="0" width="25" height="25"></rect>
                <g id="group" transform="translate(1.500000, 2.500000)" fill="#FFFFFF" fill-rule="nonzero">
                    <path d="M11.0001642,18 C7.13610243,18 0,15.3192791 0,11.5 C0,7.6804186 7.13610246,5 11.0001642,5 C14.8635692,5 22,7.6804186 22,11.5 C22,15.3192791 14.8635692,18 11.0001642,18 Z M11.0001638,6.23809524 C7.35802218,6.23809524 1.33333333,8.69735919 1.33333333,11.5 C1.33333333,14.3023401 7.35834985,16.7619048 11.0001638,16.7619048 C14.6416501,16.7619048 20.6666667,14.3023401 20.6666667,11.5 C20.6666667,8.69735919 14.6416501,6.23809524 11.0001638,6.23809524 L11.0001638,6.23809524 Z" id="Shape"></path>
                    <path d="M10.5002143,7 C12.9810961,7 15,9.01857144 15,11.5 C15,13.9818572 12.9810961,16 10.5002143,16 C8.01847529,16 6,13.9818572 6,11.5 C6,9.01857141 8.01890386,7 10.5002143,7 Z M10.5001941,8.2 C8.68025409,8.2 7.2,9.68072942 7.2,11.5 C7.2,13.3200471 8.68025409,14.8 10.5001941,14.8 C12.3193577,14.8 13.8,13.3196588 13.8,11.5 C13.8,9.68072942 12.3193577,8.2 10.5001941,8.2 Z M8.80899796,11.2 C9.0348813,11.2 9.21799593,11.3831396 9.21799593,11.6090537 C9.21912327,12.5878579 10.0123311,13.3809909 10.9910021,13.3818926 C11.2168854,13.3818926 11.4,13.5650322 11.4,13.7909463 C11.4,14.0168604 11.2168854,14.2 10.9910021,14.2 C9.56075138,14.1986474 8.40157826,13.0394992 8.4,11.6090537 C8.4,11.3831396 8.58311463,11.2 8.80899796,11.2 Z M9.89345156,9.43034281 C10.0514217,9.49017339 10.1658234,9.63067075 10.1935625,9.79891089 C10.2213017,9.96715102 10.1581641,10.1375743 10.027933,10.2459838 C9.95337719,10.3075311 9.88306818,10.3748037 9.81842163,10.4454161 C9.7292534,10.5439579 9.6032196,10.600056 9.47112342,10.6 C9.28405418,10.5993189 9.1149715,10.4871834 9.0398295,10.313966 C8.9646875,10.1407487 8.99761685,9.93902353 9.12382525,9.79940813 C9.21819974,9.6958751 9.31965235,9.59806738 9.42771116,9.50884765 C9.55794217,9.4004381 9.73548141,9.37051222 9.89345156,9.43034281 Z" id="Shape"></path>
                    <path d="M11.1450623,3.26434569 C10.9514396,3.26434569 10.7657472,3.19556146 10.6288353,3.07312474 C10.4919234,2.95068802 10.4150072,2.7846282 10.4150072,2.61147654 L10.4150072,0.652869137 C10.4150072,0.292299469 10.741864,0 11.1450623,0 C11.5482606,0 11.8751174,0.292299469 11.8751174,0.652869137 L11.8751174,2.61147654 C11.8751174,2.97186029 11.5476877,3.26434569 11.1450623,3.26434569 Z M6.93884975,3.48632208 C6.66273636,3.48672771 6.41006489,3.34758947 6.28618047,3.12691672 L5.61014945,1.92563751 C5.52307688,1.77093247 5.50831204,1.59162677 5.56910457,1.42718437 C5.62989711,1.26274197 5.76126458,1.12664024 5.93429391,1.04883426 C6.10722737,0.970854699 6.30773269,0.957555195 6.4916384,1.01186563 C6.6755441,1.06617607 6.82776184,1.18364061 6.91475793,1.33838171 L7.59078897,2.53966093 C7.70482892,2.74204684 7.6933465,2.98284249 7.56045392,3.17581158 C7.42756135,3.36878068 7.19227183,3.48632208 6.93884975,3.48632208 L6.93884975,3.48632208 Z M2.67934322,4.99999914 C2.47209121,5.00030038 2.27452336,4.92157816 2.13618221,4.78357216 L1.18711056,3.83887052 C1.01274999,3.66539257 0.955125301,3.42190675 1.03594315,3.20013182 C1.116761,2.97835689 1.32374323,2.81198575 1.57892164,2.76368878 C1.83410006,2.71539182 2.09870698,2.7925065 2.27306754,2.96598447 L3.22213918,3.91068613 C3.41479815,4.10236011 3.46333597,4.37745354 3.34603241,4.61286463 C3.22872885,4.84827573 2.96753911,4.9999436 2.67934322,4.99999914 L2.67934322,4.99999914 Z M15.0526822,3.48632178 C14.7993251,3.48620145 14.5641519,3.36862201 14.4313473,3.17567266 C14.2985428,2.9827233 14.2870973,2.74199497 14.4011081,2.53966093 L15.0771391,1.33838171 C15.1640618,1.18357782 15.3162771,1.06605567 15.5002111,1.01173687 C15.6841451,0.957418081 15.8846868,0.97076519 16.0576031,1.04883426 C16.2305685,1.12669805 16.3618561,1.26282459 16.4225781,1.4272614 C16.4833001,1.59169821 16.4684814,1.77097239 16.3813825,1.92563751 L15.7053515,3.12691672 C15.5814017,3.34753582 15.3287715,3.48665131 15.0526822,3.48632178 L15.0526822,3.48632178 Z M19.3118237,4.99999827 C19.023694,4.99981484 18.762636,4.84809898 18.6454251,4.61271566 C18.5282143,4.37733234 18.576778,4.10231609 18.7693928,3.91068613 L19.7184644,2.96598447 C19.8914057,2.78770705 20.1584759,2.70677832 20.4169812,2.754317 C20.6754865,2.80185568 20.8851762,2.97045974 20.9654204,3.19529753 C21.0456646,3.42013532 20.9839688,3.66619838 20.8040564,3.83887052 L19.8549848,4.78357216 C19.7111639,4.92720338 19.5122239,4.99999827 19.3118237,4.99999827 L19.3118237,4.99999827 Z" id="Shape-Copy"></path>
                </g>
            </g>
        </g>
    </g>
</svg>