
<svg width="25px" height="26px" viewBox="0 0 25 26" version="1.1" xmlns="http://www.w3.org/2000/svg" xmlns:xlink="http://www.w3.org/1999/xlink">
    <g id="Page-1" stroke="none" stroke-width="1" fill="none" fill-rule="evenodd">
        <g id="icon-for-sutitle-reader-(dark-mode)" transform="translate(-135.000000, -87.000000)">
            <g id="refresh-btn" transform="translate(135.000000, 87.500000)">
                <rect id="Rectangle-Copy-2" x="0" y="0" width="25" height="25"></rect>
                <path d="M19.4437762,12.75 C19.4437762,14.8917852 18.4983702,16.9071254 16.8507183,18.2805136 C15.2030663,19.6519564 13.0262983,20.2122054 10.8787094,19.8173077 C8.27203456,19.3387617 5.66535968,16.7301023 5.18487558,14.1233882 C4.78998379,11.9738217 5.35022436,9.7970209 6.72164659,8.15128946 C8.09306882,6.50361272 10.1103239,5.55819253 12.2520769,5.55819253 C14.1526153,5.55819253 15.9422726,6.29157403 17.2961873,7.62411072 L15.4481716,7.59104046 C15.0182648,7.58325923 14.6642238,7.92563361 14.6564427,8.35554691 C14.6486616,8.7854602 14.9910308,9.13950645 15.4209377,9.14728768 L19.0372127,9.21342819 L19.0508297,9.21342819 C19.2531388,9.21342819 19.4457215,9.13561583 19.5916175,8.99555358 C19.7394587,8.85160071 19.825051,8.6551245 19.8289416,8.44697643 L19.8834094,4.83064695 C19.8892453,4.40073366 19.546876,4.04668742 19.1169692,4.04085149 C18.6870624,4.03501556 18.3330215,4.37738995 18.3271856,4.80730325 L18.301897,6.43358159 C17.5276756,5.69241885 16.6386828,5.10688084 15.652426,4.6905847 C14.574741,4.23149177 13.4289712,4 12.2501317,4 C9.64540206,4 7.19434957,5.14967763 5.52529954,7.15334593 C4.71411788,8.12794575 4.13442452,9.24066252 3.80372696,10.4603713 C3.45746716,11.7384393 3.40688989,13.0651401 3.65394042,14.4035127 C3.94184182,15.9714317 4.82305355,17.5568586 6.13417211,18.8660516 C7.44529066,20.1771899 9.03069366,21.0564695 10.5966439,21.3463206 C11.1510486,21.4474767 11.7054533,21.5 12.2540222,21.5 C13.0282436,21.5 13.7927385,21.3988439 14.5397259,21.1965318 C15.7594163,20.8658293 16.8721164,20.2880725 17.8467015,19.4749333 C19.8503397,17.8058582 21,15.3547688 21,12.75 C21,12.3200867 20.6517949,11.9718764 20.2218881,11.9718764 C19.7919813,11.9718764 19.4437762,12.3200867 19.4437762,12.75 Z" id="Path" fill="#FFFFFF" fill-rule="nonzero"></path>
            </g>
        </g>
    </g>
</svg>