
<svg width="25px" height="25px" viewBox="0 0 25 25" version="1.1" xmlns="http://www.w3.org/2000/svg" xmlns:xlink="http://www.w3.org/1999/xlink">
    <defs>
        <linearGradient x1="77.7648926%" y1="12.3210362%" x2="90.1271275%" y2="100%" id="linearGradient-ogo5q-o-1--1">
            <stop stop-color="#CF867E" offset="0%"></stop>
            <stop stop-color="#70A8C3" offset="100%"></stop>
        </linearGradient>
    </defs>
    <g id="Page-1" stroke="none" stroke-width="1" fill="none" fill-rule="evenodd">
        <g id="icon-for-sutitle-reader-(dark-mode)" transform="translate(-19.000000, -12.000000)">
            <g id="refresh-btn-with-color" transform="translate(19.000000, 12.000000)">
                <rect id="Rectangle" x="0" y="0" width="25" height="25"></rect>
                <path d="M19.2065228,5.7935846 C17.2689195,3.85831301 14.5229909,2.74226682 11.5036582,3.05096045 C7.14107895,3.49025523 3.55116362,7.0283591 3.06379101,11.3856884 C2.40999848,17.1440118 6.8676748,22 12.4902905,22 C16.2822872,22 19.5393627,19.7797805 21.0609162,16.5859887 C21.4413046,15.790509 20.870722,14.8763009 19.9910739,14.8763009 C19.5512498,14.8763009 19.1352,15.1137576 18.9450058,15.505561 C17.6017594,18.3906591 14.3803453,20.2190752 10.8617528,19.4354683 C8.2228084,18.8536996 6.0950109,16.704717 5.53631547,14.0689484 C4.53779598,9.46228962 8.04450135,5.37803548 12.4902905,5.37803548 C14.4635552,5.37803548 16.2228515,6.19726088 17.5066623,7.49139954 L15.7117046,9.28419714 C14.962815,10.0321855 15.485849,11.3144514 16.5438042,11.3144514 L20.8112863,11.3144514 C21.4650788,11.3144514 22,10.780174 22,10.1271682 L22,5.86482159 C22,4.80813956 20.7161892,4.27386213 19.9672996,5.02185053 L19.2065228,5.7935846 Z" id="Path" fill-opacity="0.95" fill="url(#linearGradient-ogo5q-o-1--1)" fill-rule="nonzero"></path>
            </g>
        </g>
    </g>
</svg>