<svg width="25px" height="25px" viewBox="0 0 25 25" version="1.1" xmlns="http://www.w3.org/2000/svg" xmlns:xlink="http://www.w3.org/1999/xlink">
    <g id="Page-1" stroke="none" stroke-width="1" fill="none" fill-rule="evenodd">
        <g id="icon-for-sutitle-reader-(light-mode)" transform="translate(-51.000000, -41.000000)">
            <g id="srt-icon" transform="translate(51.000000, 41.000000)">
                <path d="M20.4848485,6.53352127 L15.9515151,2.01567518 C15.5909091,1.65630107 15.1787879,1.50228359 14.6636364,1.50228359 L5.80303031,1.50228359 C4.82424242,1.45094444 4,2.27237099 4,3.24781502 L4,20.7031294 C4,21.6785734 4.82424242,22.5 5.80303031,22.5 L19.1969697,22.5 C20.1757576,22.5 21,21.6785734 21,20.7031294 L21,7.76566111 C21,7.30360867 20.7939394,6.84155623 20.4848485,6.53352127 Z M19.1969697,7.61164363 L15.0757576,7.61164363 C14.9212121,7.61164363 14.8181818,7.5089653 14.8181818,7.35494782 L14.8181818,3.24781502 C14.8181818,3.19647587 14.8181818,3.09379754 14.7666667,3.04245839 C14.7666667,3.04245839 14.8181818,3.04245839 14.8181818,3.09379754 L19.4030303,7.61164363 C19.3515152,7.66298278 19.3,7.61164363 19.1969697,7.61164363 Z M5.80303031,20.9598252 C5.64848486,20.9598252 5.54545455,20.8571469 5.54545455,20.7031294 L5.54545455,3.24781502 C5.54545455,3.09379754 5.64848486,2.99111924 5.80303031,2.99111924 L13.3242424,2.99111924 C13.2727273,3.09379756 13.2727273,3.14513672 13.2727273,3.24781502 L13.2727273,7.35494782 C13.2727273,8.33039185 14.0969697,9.15181843 15.0757576,9.15181843 L19.1969697,9.15181843 C19.3,9.15181843 19.3515151,9.15181843 19.4545455,9.10047925 L19.4545455,20.7031294 C19.4545455,20.8571469 19.3515151,20.9598252 19.1969697,20.9598252 L5.80303031,20.9598252 Z" id="Shape" fill="#72A7C1" fill-rule="nonzero"></path>
                <path d="M14.2941176,16.2368421 L7.70588235,16.2368421 C7.32941176,16.2368421 7,16.5315789 7,16.8684211 C7,17.2052632 7.32941176,17.5 7.70588235,17.5 L14.2941176,17.5 C14.6705882,17.5 15,17.2052632 15,16.8684211 C15,16.5315789 14.6705882,16.2368421 14.2941176,16.2368421 Z M14.2941176,12.8684211 L7.70588235,12.8684211 C7.32941176,12.8684211 7,13.1631579 7,13.5 C7,13.8368421 7.32941176,14.131579 7.70588235,14.131579 L14.2941176,14.131579 C14.6705882,14.131579 15,13.8368421 15,13.5 C15,13.1631579 14.6705882,12.8684211 14.2941176,12.8684211 Z M7.70588235,10.7631579 L9.58823531,10.7631579 C9.9647059,10.7631579 10.2941177,10.4684211 10.2941177,10.1315789 C10.2941177,9.79473684 9.9647059,9.5 9.58823531,9.5 L7.70588235,9.5 C7.32941176,9.5 7,9.79473684 7,10.1315789 C7,10.4684211 7.32941176,10.7631579 7.70588235,10.7631579 Z" id="Shape" fill="#72A7C1" fill-rule="nonzero"></path>
                <rect id="Rectangle" x="0" y="0" width="25" height="25"></rect>
            </g>
        </g>
    </g>
</svg>