
<svg width="25px" height="25px" viewBox="0 0 25 25" version="1.1" xmlns="http://www.w3.org/2000/svg" xmlns:xlink="http://www.w3.org/1999/xlink">
    <defs>
        <linearGradient x1="59.1372631%" y1="8.50613198%" x2="59.1372631%" y2="114.078112%" id="linearGradient-mm_4ytv2r7-1">
            <stop stop-color="#CF867E" offset="0%"></stop>
            <stop stop-color="#70A8C3" offset="100%"></stop>
        </linearGradient>
    </defs>
    <g id="Page-1" stroke="none" stroke-width="1" fill="none" fill-rule="evenodd">
        <g id="icon-for-sutitle-reader-(dark-mode)" transform="translate(-19.000000, -12.000000)">
            <g id="switch-ison" transform="translate(19.000000, 12.000000)">
                <path d="M8,3.5 C9.65685425,3.5 11,4.84314575 11,6.5 C11,7.80588222 10.1656226,8.91688515 9.00090072,9.32897577 L9,20.5 C9,21.0522847 8.55228475,21.5 8,21.5 C7.44771525,21.5 7,21.0522847 7,20.5 L7.00008893,9.32932572 C5.8348501,8.91751442 5,7.80625206 5,6.5 C5,4.84314575 6.34314575,3.5 8,3.5 Z M17,3.5 C17.5522847,3.5 18,3.94771525 18,4.5 L18.0009007,15.6710242 C19.1656226,16.0831148 20,17.1941178 20,18.5 C20,20.1568542 18.6568542,21.5 17,21.5 C15.3431458,21.5 14,20.1568542 14,18.5 C14,17.1937479 14.8348501,16.0824856 16.0000889,15.6706743 L16,4.5 C16,3.94771525 16.4477153,3.5 17,3.5 Z" id="Combined-Shape" fill="url(#linearGradient-mm_4ytv2r7-1)" fill-rule="nonzero" transform="translate(12.500000, 12.500000) scale(-1, 1) translate(-12.500000, -12.500000) "></path>
                <rect id="Rectangle" x="0" y="0" width="25" height="25"></rect>
            </g>
        </g>
    </g>
</svg>